<svg width="60" height="60" viewBox="0 0 60 60" fill="none" xmlns="http://www.w3.org/2000/svg">
<path d="M41.8219 20.6408C44.508 20.6408 46.7953 22.3624 47.6518 24.7564L57.6902 23.654C52.4617 5.22348 26.7197 8.14436 24.4687 8.43645L12.7054 18.5685C13.3753 19.274 13.7617 20.2169 13.7617 21.194C13.7617 23.3085 12.0415 25.0301 9.92695 25.0301C9.09222 25.0301 8.29772 24.7637 7.63969 24.2705L2.95178 29.6705L35.6775 26.0751C36.0553 23.0178 38.663 20.6408 41.8219 20.6408Z" fill="#008AB7"/>
<path d="M47.932 25.839C47.9848 26.1647 48.0197 26.4957 48.0197 26.836C48.0197 30.2527 45.2393 33.0324 41.8219 33.0324C38.5265 33.0324 35.8311 30.4439 35.6446 27.194L2.16125 30.8718V36.0601C2.16125 36.0601 2.16917 36.0601 2.17312 36.0601C5.3795 36.0601 7.98719 38.6665 7.98719 41.8696C7.98719 45.0733 5.3795 47.681 2.17312 47.681C2.16917 47.681 2.16521 47.681 2.16521 47.681L2.16125 52.2193L27.1272 49.4777C27.1028 49.2601 27.0896 49.0452 27.0896 48.8302C27.0896 45.6265 29.6947 43.0208 32.8984 43.0208C35.8885 43.0208 38.3597 45.2962 38.6729 48.2091L57.8373 46.1025V24.7524L47.932 25.839Z" fill="#008AB7"/>
<path d="M41.8219 21.7478C39.0157 21.7478 36.7338 24.0311 36.7338 26.8359C36.7338 29.6421 39.0157 31.9254 41.8219 31.9254C44.628 31.9254 46.9127 29.6421 46.9127 26.8359C46.912 24.0311 44.628 21.7478 41.8219 21.7478Z" fill="#008AB7"/>
<path d="M20.9531 38.9446C22.7644 38.9446 24.2327 37.4763 24.2327 35.6651C24.2327 33.8538 22.7644 32.3855 20.9531 32.3855C19.1419 32.3855 17.6736 33.8538 17.6736 35.6651C17.6736 37.4763 19.1419 38.9446 20.9531 38.9446Z" fill="#008AB7"/>
<path d="M20.9511 40.44C18.3204 40.44 16.1788 38.2985 16.1788 35.6651C16.1788 33.0317 18.3204 30.8901 20.9511 30.8901C23.5859 30.8901 25.7274 33.0317 25.7274 35.6651C25.7274 38.2985 23.5859 40.44 20.9511 40.44ZM20.9511 33.8802C19.9687 33.8802 19.1689 34.6813 19.1689 35.6651C19.1689 36.6488 19.9687 37.4499 20.9511 37.4499C21.9362 37.4499 22.7373 36.6488 22.7373 35.6651C22.7373 34.6813 21.9362 33.8802 20.9511 33.8802Z" fill="white"/>
<path d="M33.2814 16.0869C33.2814 17.9 31.8111 19.3671 30.0019 19.3671C28.1887 19.3671 26.7203 17.9 26.7203 16.0869C26.7203 14.2763 28.1887 12.8066 30.0019 12.8066C31.8104 12.8073 33.2814 14.2763 33.2814 16.0869Z" fill="#008AB7"/>
<path d="M30.0012 20.8637C27.3678 20.8637 25.225 18.7209 25.225 16.0874C25.225 13.454 27.3678 11.3125 30.0012 11.3125C32.6333 11.3125 34.7762 13.454 34.7762 16.0874C34.7762 18.7209 32.6333 20.8637 30.0012 20.8637ZM30.0012 14.302C29.0162 14.302 28.2151 15.103 28.2151 16.0868C28.2151 17.0705 29.0162 17.8716 30.0012 17.8716C30.985 17.8716 31.7861 17.0705 31.7861 16.0868C31.7861 15.103 30.985 14.302 30.0012 14.302Z" fill="white"/>
<path d="M41.8219 33.879C37.8876 33.879 34.6865 30.6779 34.6865 26.7409C34.6865 22.8053 37.8876 19.6042 41.8219 19.6042C45.7601 19.6042 48.9626 22.8053 48.9626 26.7409C48.9626 30.6772 45.7595 33.879 41.8219 33.879ZM41.8219 22.5957C39.536 22.5957 37.6766 24.455 37.6766 26.7409C37.6766 29.0282 39.536 30.8889 41.8219 30.8889C44.1105 30.8889 45.9725 29.0282 45.9725 26.7409C45.9725 24.455 44.1098 22.5957 41.8219 22.5957Z" fill="white"/>
<path d="M1.60879 54.2375C1.24154 54.2375 0.886151 54.1024 0.610546 53.8564C0.294063 53.5716 0.113403 53.1674 0.113403 52.7428V46.9762C0.113403 46.5503 0.294722 46.1441 0.613184 45.86C0.930986 45.5764 1.3523 45.4413 1.7789 45.4901L1.96285 45.5131C2.03208 45.5237 2.10197 45.5362 2.17384 45.5362C4.24945 45.5362 5.93934 43.849 5.93934 41.7747C5.93934 39.7011 4.24945 38.0158 2.17384 38.0158C2.10659 38.0158 2.04263 38.029 1.97802 38.0375L1.7789 38.0639C1.3523 38.1107 0.931645 37.9782 0.613184 37.6947C0.295381 37.4099 0.113403 37.0044 0.113403 36.5784V30.2797C0.113403 29.4542 0.781975 28.7844 1.60879 28.7844C2.43428 28.7844 3.10417 29.4542 3.10417 30.2797V35.0883C6.39033 35.5419 8.93011 38.3685 8.93011 41.7747C8.93011 45.1835 6.39033 48.0101 3.10417 48.4637V51.074L26.1527 48.5435C26.2543 44.9092 29.2424 41.985 32.9004 41.985C36.0488 41.985 38.7046 44.1575 39.4437 47.0817L56.8985 45.1644V24.0391C56.8985 23.2136 57.5684 22.5437 58.3938 22.5437C59.2207 22.5437 59.8892 23.2136 59.8892 24.0391V46.5041C59.8892 47.2663 59.3163 47.9066 58.5574 47.9903L38.3189 50.2142C37.8949 50.263 37.4756 50.1252 37.1585 49.8424C36.8413 49.5595 36.6593 49.1547 36.6593 48.7307C36.6554 46.6597 34.9694 44.9745 32.9004 44.9745C30.8268 44.9745 29.1402 46.6617 29.1402 48.7347C29.1402 48.9971 29.1712 49.2641 29.2332 49.5483C29.3248 49.963 29.2345 50.3956 28.9873 50.7411C28.74 51.0866 28.3576 51.3088 27.9363 51.3556L1.7723 54.2283C1.71692 54.2349 1.66285 54.2375 1.60879 54.2375Z" fill="white"/>
<path d="M1.60612 31.7757C1.05491 31.7757 0.542602 31.4705 0.282162 30.9733C-0.0039917 30.4287 0.0751292 29.7641 0.477986 29.2992L6.45689 22.4137C6.73117 22.0979 7.12414 21.9113 7.54216 21.8988C7.96216 21.8869 8.36238 22.0498 8.65513 22.3485C8.99535 22.6946 9.447 22.8865 9.92766 22.8865C10.9127 22.8865 11.7138 22.0841 11.7138 21.099C11.7138 20.5353 11.4461 20.0137 10.98 19.6709C10.6127 19.4006 10.3892 18.9779 10.3721 18.5236C10.3542 18.0693 10.5461 17.6309 10.8896 17.3335L23.2562 6.68254C23.4699 6.49858 23.7316 6.37858 24.0099 6.33638C24.3125 6.29155 54.3738 2.01704 59.843 23.6737C59.9485 24.0937 59.8674 24.5381 59.6202 24.8935C59.3742 25.2489 58.9852 25.4797 58.5553 25.5272L47.4237 26.7483C46.6101 26.8399 45.8657 26.2458 45.774 25.4256C45.685 24.6041 46.2778 23.8663 47.098 23.7759L56.4487 22.7493C50.9208 6.7788 28.2257 8.84056 24.8683 9.24012L13.9918 18.6087C14.4501 19.3518 14.7039 20.2135 14.7039 21.099C14.7039 23.7337 12.5611 25.8766 9.92766 25.8766C9.18854 25.8766 8.47645 25.7091 7.83095 25.3926L5.23974 28.3762L35.9901 24.9984C36.8156 24.9107 37.5494 25.5008 37.6397 26.3223C37.7301 27.1425 37.1373 27.8817 36.3171 27.972L1.77095 31.7672C1.71557 31.7724 1.6615 31.7757 1.60612 31.7757Z" fill="white"/>
</svg>
