<svg width="70" height="70" viewBox="0 0 70 70" fill="none" xmlns="http://www.w3.org/2000/svg">
<path d="M21.0547 31.0077C21 31.0077 21 31.0077 20.9453 31.0077L14.2188 29.914C13.9453 29.8593 13.7266 29.5858 13.7813 29.3124C13.836 29.039 14.1094 28.8202 14.3828 28.8749L21 29.914L24.6094 29.203C24.8828 29.1483 25.211 29.3124 25.2656 29.6405C25.3203 29.914 25.1563 30.2421 24.8281 30.2968L21.1094 31.0077C21.1094 31.0077 21.0547 31.0077 21.0547 31.0077Z" fill="white"/>
<path d="M14.1094 63.8751C13.9453 63.8751 13.7813 63.8204 13.6719 63.6563C13.5078 63.4376 13.5078 63.0548 13.7813 62.8907L18.211 59.336L17.0625 54.7423C17.0078 54.5235 17.0625 54.3048 17.2266 54.1954L23.8438 48.7267C24.0625 48.5079 24.4453 48.5626 24.6094 48.7813C24.8282 49.0001 24.7735 49.3829 24.5547 49.547L18.211 54.797L19.3594 59.3907C19.4141 59.6095 19.3594 59.8282 19.1953 59.9376L14.4922 63.711C14.3828 63.8204 14.2188 63.8751 14.1094 63.8751Z" fill="white"/>
<path d="M48.6172 31.0077C48.5625 31.0077 48.5625 31.0077 48.5078 31.0077L45.2266 30.2968C44.9531 30.2421 44.7344 29.914 44.7891 29.6405C44.8438 29.3671 45.1719 29.1483 45.4453 29.203L48.6172 29.914L55.2344 28.8749C55.5078 28.8202 55.8359 29.039 55.8359 29.3124C55.8906 29.5858 55.6719 29.914 55.3984 29.914L48.6719 31.0077C48.6719 31.0077 48.6719 31.0077 48.6172 31.0077Z" fill="white"/>
<path d="M44.0782 25.5937C43.8048 25.5937 43.586 25.3749 43.5313 25.1015C43.4766 24.828 43.6954 24.5546 44.0235 24.4999L45.6641 24.2812L46.9766 15.6405C47.0313 15.4765 47.1407 15.3124 47.3048 15.203L53.8673 12.5234C54.1407 12.414 54.4688 12.5234 54.5782 12.7968C54.6876 13.0702 54.5782 13.3984 54.3048 13.5077L48.0157 16.078L46.6485 24.828C46.5938 25.0468 46.4298 25.2655 46.1563 25.2655L44.0782 25.4843C44.1329 25.5937 44.0782 25.5937 44.0782 25.5937Z" fill="white"/>
<path d="M25.9219 25.4844H25.8672L24.6641 25.3203C24.4453 25.2657 24.2266 25.1016 24.1719 24.8828L22.8047 16.1328L16.5157 13.5625C16.2422 13.4532 16.0782 13.125 16.2422 12.8516C16.3516 12.5782 16.6797 12.4141 16.9532 12.5782L23.5157 15.2578C23.6797 15.3125 23.8438 15.4766 23.8438 15.6953L25.1563 24.336L25.9219 24.4453C26.1953 24.5 26.4141 24.7735 26.4141 25.0469C26.4688 25.2657 26.1953 25.4844 25.9219 25.4844Z" fill="white"/>
<path d="M55.5625 63.8751C55.4531 63.8751 55.3437 63.8204 55.2344 63.7657L50.5312 59.9923C50.3672 59.8829 50.3125 59.6642 50.3672 59.4454L51.5156 54.8517L45.5 49.8751C45.2812 49.6563 45.2265 49.3282 45.4453 49.1095C45.664 48.8907 45.9922 48.836 46.2109 49.0548L52.5 54.2501C52.664 54.3595 52.7187 54.5782 52.664 54.797L51.5156 59.3907L55.9453 62.9454C56.164 63.1095 56.2187 63.4923 56.0547 63.711C55.8906 63.8204 55.7265 63.8751 55.5625 63.8751Z" fill="white"/>
<path d="M38.7734 16.5157C38.7187 16.5157 38.6093 16.5157 38.5546 16.461C38.2812 16.3516 38.1171 16.0235 38.2265 15.7501L43.4765 2.84383C43.5859 2.57039 43.914 2.40633 44.1875 2.5157C44.4609 2.62508 44.625 2.95321 44.5156 3.22664L39.2656 16.1329C39.2109 16.3516 38.9921 16.5157 38.7734 16.5157Z" fill="white"/>
<path d="M31.2812 16.5156C31.0625 16.5156 30.8437 16.4063 30.7891 16.1875L25.5391 3.22656C25.4297 2.95313 25.5391 2.625 25.8672 2.51563C26.1406 2.40625 26.4687 2.51562 26.5781 2.84375L31.8281 15.75C31.9375 16.0234 31.8281 16.3516 31.5 16.4609C31.4453 16.4609 31.3359 16.5156 31.2812 16.5156Z" fill="white"/>
<path d="M46.4844 41.2344C46.4844 55.9453 41.3437 67.8125 35.0547 67.8125C28.7109 67.8125 23.625 55.8906 23.625 41.2344C23.625 26.5781 28.7656 14.6563 35.0547 14.6563C41.3437 14.6562 46.4844 26.5234 46.4844 41.2344Z" fill="white"/>
<path d="M25.5391 26.25L25.5937 26.3594C25.5937 26.3594 26.9609 23.6797 29.5859 23.6797C30.1328 23.6797 30.7891 23.9531 31.5 24.2266C32.375 24.5547 33.3594 24.9375 34.5625 24.9922C34.5078 26.0313 34.4531 28.9844 34.5625 32.9766C34.3437 42.1094 33.3047 56.4922 29.1484 63.9844L29.2031 64.0391L29.8594 64.9141C32.9219 59.6641 34.3984 51.1328 35.1094 43.2031C35.8203 51.0781 37.2969 59.5547 40.3047 64.8047L40.3594 64.75L41.0156 63.875L41.0703 63.8203C37.0234 56.2734 35.9844 42 35.7109 32.9219C35.8203 28.9297 35.7109 25.9766 35.7109 24.9375C36.8047 24.8281 37.7891 24.5 38.6094 24.1719C39.3203 23.8984 39.9766 23.6797 40.5234 23.6797C43.0937 23.6797 44.4609 26.3594 44.4609 26.4141L44.5703 26.3594L43.75 23.6797V23.4609C42.9297 22.9141 41.8906 22.4219 40.5234 22.4219C39.7578 22.4219 38.9922 22.8047 38.2266 23.0781C37.2969 23.4063 36.2578 23.8437 35.0547 23.8437C33.8516 23.8437 32.8125 23.4609 31.8828 23.1328C31.0625 22.8594 30.2969 22.4219 29.5859 22.4219C28.2734 22.4219 27.1797 22.9141 26.4141 23.4609L25.5391 26.25Z" fill="#008AB7"/>
</svg>
