<svg width="60" height="60" viewBox="0 0 60 60" fill="none" xmlns="http://www.w3.org/2000/svg">
<path d="M33.75 15.1688V5.625C33.75 5.12772 33.5525 4.65081 33.2008 4.29917C32.8492 3.94754 32.3723 3.75 31.875 3.75H16.875C16.3777 3.75 15.9008 3.94754 15.5492 4.29917C15.1975 4.65081 15 5.12772 15 5.625V15.1688C12.3805 15.6115 10.0022 16.967 8.28635 18.9952C6.57046 21.0234 5.62769 23.5934 5.625 26.25V50.625C5.625 52.1168 6.21763 53.5476 7.27252 54.6025C8.32742 55.6574 9.75816 56.25 11.25 56.25H37.5C38.9918 56.25 40.4226 55.6574 41.4775 54.6025C42.5324 53.5476 43.125 52.1168 43.125 50.625V26.25C43.1223 23.5934 42.1795 21.0234 40.4637 18.9952C38.7478 16.967 36.3695 15.6115 33.75 15.1688V15.1688ZM18.75 7.5H30V9.375H28.125C27.6277 9.375 27.1508 9.57254 26.7992 9.92418C26.4475 10.2758 26.25 10.7527 26.25 11.25C26.25 11.7473 26.4475 12.2242 26.7992 12.5758C27.1508 12.9275 27.6277 13.125 28.125 13.125H30V15H18.75V7.5ZM39.375 50.625C39.375 51.1223 39.1775 51.5992 38.8258 51.9508C38.4742 52.3025 37.9973 52.5 37.5 52.5H11.25C10.7527 52.5 10.2758 52.3025 9.92418 51.9508C9.57254 51.5992 9.375 51.1223 9.375 50.625V26.25C9.375 24.2609 10.1652 22.3532 11.5717 20.9467C12.9782 19.5402 14.8859 18.75 16.875 18.75H31.875C33.8641 18.75 35.7718 19.5402 37.1783 20.9467C38.5848 22.3532 39.375 24.2609 39.375 26.25V50.625Z" fill="white"/>
<path d="M31.875 33.75H26.25V28.125C26.25 27.6277 26.0525 27.1508 25.7008 26.7992C25.3492 26.4475 24.8723 26.25 24.375 26.25C23.8777 26.25 23.4008 26.4475 23.0492 26.7992C22.6975 27.1508 22.5 27.6277 22.5 28.125V33.75H16.875C16.3777 33.75 15.9008 33.9475 15.5492 34.2992C15.1975 34.6508 15 35.1277 15 35.625C15 36.1223 15.1975 36.5992 15.5492 36.9508C15.9008 37.3025 16.3777 37.5 16.875 37.5H22.5V43.125C22.5 43.6223 22.6975 44.0992 23.0492 44.4508C23.4008 44.8025 23.8777 45 24.375 45C24.8723 45 25.3492 44.8025 25.7008 44.4508C26.0525 44.0992 26.25 43.6223 26.25 43.125V37.5H31.875C32.3723 37.5 32.8492 37.3025 33.2008 36.9508C33.5525 36.5992 33.75 36.1223 33.75 35.625C33.75 35.1277 33.5525 34.6508 33.2008 34.2992C32.8492 33.9475 32.3723 33.75 31.875 33.75Z" fill="white"/>
<path d="M52.5 7.5H39.375C38.8777 7.5 38.4008 7.69754 38.0492 8.04918C37.6975 8.40081 37.5 8.87772 37.5 9.375C37.5 9.87228 37.6975 10.3492 38.0492 10.7008C38.4008 11.0525 38.8777 11.25 39.375 11.25H52.5C52.9973 11.25 53.4742 11.0525 53.8258 10.7008C54.1775 10.3492 54.375 9.87228 54.375 9.375C54.375 8.87772 54.1775 8.40081 53.8258 8.04918C53.4742 7.69754 52.9973 7.5 52.5 7.5V7.5Z" fill="white"/>
<path d="M51.0807 15.0563L43.5807 13.1813C43.1017 13.0702 42.5983 13.1518 42.1788 13.4083C41.7593 13.6649 41.4575 14.076 41.3382 14.5531C41.219 15.0301 41.2919 15.5349 41.5412 15.9587C41.7906 16.3825 42.1964 16.6914 42.6714 16.8188L50.1714 18.6938C50.6504 18.8048 51.1538 18.7233 51.5733 18.4667C51.9928 18.2101 52.2946 17.799 52.4139 17.322C52.5332 16.8449 52.4602 16.3402 52.2109 15.9164C51.9615 15.4926 51.5557 15.1837 51.0807 15.0563V15.0563Z" fill="white"/>
</svg>
