<svg width="60" height="60" viewBox="0 0 60 60" fill="none" xmlns="http://www.w3.org/2000/svg">
<path d="M6.48157 25.7741C6.48157 23.1778 7.31017 20.8577 8.93975 18.8138C10.5693 16.7699 12.6408 15.4718 15.1543 14.9194C15.8448 11.8259 17.4191 9.25726 19.9049 7.26861C22.3907 5.27997 25.208 4.28564 28.4119 4.28564C31.5054 4.28564 34.295 5.25235 36.7532 7.18575C39.2114 9.11916 40.7857 11.605 41.5314 14.6155H42.2772C45.3706 14.6155 48.0221 15.6927 50.2318 17.8747C52.4137 20.0291 53.5185 22.6806 53.5185 25.7464C53.5185 27.4036 53.1871 28.978 52.4966 30.4419C51.8061 31.9057 50.867 33.1762 49.6517 34.2258V34.3086C49.6517 35.9382 49.127 37.4021 48.105 38.7002C47.0831 39.9984 45.7849 40.7994 44.2382 41.1584C43.8515 42.8709 42.9953 44.3347 41.7248 45.5224C40.4542 46.7101 38.9352 47.4558 37.2227 47.732C38.0237 48.6711 38.4104 49.7206 38.4104 50.8531C38.4104 52.1788 37.9408 53.3113 37.0017 54.278C36.0627 55.217 34.9302 55.7142 33.6045 55.7142C32.2787 55.7142 31.1463 55.2447 30.2072 54.278C29.2681 53.3389 28.7986 52.1788 28.7986 50.8531C28.7986 50.3283 28.8814 49.8035 29.0748 49.2787H28.7986C27.1966 49.2787 25.8156 48.6987 24.6556 47.5387C23.4955 46.3786 22.9155 44.9976 22.9155 43.3956C22.9155 42.2908 23.1917 41.2965 23.7441 40.4403C22.3079 39.6393 21.2859 38.5069 20.6507 36.9878H17.1153V36.9604C14.1599 36.7668 11.6465 35.6068 9.57502 33.4524C7.50351 31.2981 6.48157 28.757 6.48157 25.7741ZM10.3484 25.0836C10.3484 27.2932 11.1217 29.1713 12.6685 30.7181C14.2152 32.2648 16.0934 33.0381 18.2753 33.0381C19.6287 33.0381 20.8992 32.7343 22.0593 32.0991C22.3907 34.1429 23.3574 35.8554 24.9318 37.2364C26.5061 38.6174 28.3843 39.2803 30.511 39.2803C32.914 39.2803 34.9579 38.4241 36.6427 36.7392C37.7751 38.065 39.1837 38.7003 40.8962 38.7003C42.4705 38.7003 43.7963 38.1479 44.9287 37.0431C46.0335 35.9383 46.5859 34.5849 46.5859 33.0105C47.6907 32.2648 48.5745 31.3257 49.2098 30.138C49.8451 28.978 50.1765 27.7075 50.1765 26.3541C50.1765 24.1721 49.4032 22.2939 47.8288 20.7748C46.2545 19.2557 44.3763 18.4824 42.1667 18.4824C40.62 18.4824 39.2114 18.8967 37.9408 19.6976C38.1066 19.0348 38.1618 18.289 38.1618 17.5157C38.1618 14.8641 37.2227 12.5993 35.3169 10.7211C33.4111 8.84296 31.1187 7.93149 28.4395 7.93149C25.8432 7.93149 23.606 8.84296 21.7279 10.6106C19.8497 12.3783 18.8554 14.5879 18.7725 17.1566C18.7173 17.1566 18.6344 17.1566 18.5515 17.1566C18.4411 17.1566 18.3582 17.1566 18.303 17.1566C16.121 17.1566 14.2704 17.93 12.6961 19.4767C11.1218 21.0234 10.3484 22.9292 10.3484 25.0836H10.3484Z" fill="white"/>
</svg>
