<svg width="50" height="50" viewBox="0 0 50 50" fill="none" xmlns="http://www.w3.org/2000/svg">
<path d="M25 50C38.8071 50 50 38.8071 50 25C50 11.1929 38.8071 0 25 0C11.1929 0 0 11.1929 0 25C0 38.8071 11.1929 50 25 50Z" fill="#008AB7"/>
<path d="M21.2109 37.9687L9.6875 26.4453C9.53125 26.2891 9.53125 26.0547 9.6875 25.8984L13.0078 22.5781C13.1641 22.4219 13.3984 22.4219 13.5547 22.5781L21.4844 30.5078L36.4062 15.5859C36.5625 15.4297 36.7969 15.4297 36.9531 15.5859L40.2734 18.9062C40.4297 19.0625 40.4297 19.2969 40.2734 19.4531L21.7578 37.9687C21.6016 38.125 21.3672 38.125 21.2109 37.9687Z" fill="white"/>
</svg>
