<svg width="19" height="17" viewBox="0 0 19 17" fill="none" xmlns="http://www.w3.org/2000/svg">
<g clip-path="url(#clip0_13_29)">
<path d="M12.5946 7.24002L19 10.7676V3.56348L12.5946 7.24002Z" fill="#065FAB"/>
<path d="M0 3.56348V10.7676L6.40538 7.24002L0 3.56348Z" fill="#065FAB"/>
<path d="M17.8125 2H1.18752C0.594957 2 0.124707 2.38483 0.0356445 2.88034L9.50001 8.31241L18.9644 2.88034C18.8753 2.38483 18.4051 2 17.8125 2Z" fill="#065FAB"/>
<path d="M11.5068 8.02008L9.82653 8.98421C9.72678 9.04111 9.61397 9.06904 9.49997 9.06904C9.38597 9.06904 9.27316 9.04111 9.17341 8.98421L7.49309 8.01904L0.0379639 12.127C0.129401 12.6183 0.597277 13.0001 1.18746 13.0001H17.8125C18.4027 13.0001 18.8705 12.6183 18.962 12.127L11.5068 8.02008Z" fill="#065FAB"/>
</g>
<defs>
<clipPath id="clip0_13_29">
<rect width="19" height="17" fill="white"/>
</clipPath>
</defs>
</svg>
