<svg width="31" height="31" viewBox="0 0 31 31" fill="none" xmlns="http://www.w3.org/2000/svg">
<path fill-rule="evenodd" clip-rule="evenodd" d="M28.4167 9.04158C28.4167 5.47529 25.5247 2.58325 21.9584 2.58325C18.0136 2.58325 12.9865 2.58325 9.04171 2.58325C5.47542 2.58325 2.58337 5.47529 2.58337 9.04158C2.58337 12.9863 2.58337 18.0135 2.58337 21.9582C2.58337 25.5245 5.47542 28.4166 9.04171 28.4166C12.9865 28.4166 18.0136 28.4166 21.9584 28.4166C25.5247 28.4166 28.4167 25.5245 28.4167 21.9582C28.4167 18.0135 28.4167 12.9863 28.4167 9.04158Z" fill="url(#paint0_radial_44_24)"/>
<path d="M19.3207 6.46479C22.0216 6.49062 24.5081 8.80916 24.5352 11.6792C24.5442 14.2264 24.5442 16.7736 24.5352 19.3207C24.5094 22.0113 22.1908 24.5081 19.3207 24.5352C16.7736 24.5442 14.2264 24.5442 11.6792 24.5352C8.97708 24.5094 6.49191 22.1908 6.46479 19.3207C6.45575 16.7736 6.45575 14.2264 6.46479 11.6792C6.48933 8.97579 8.80271 6.49191 11.6792 6.46479C14.2264 6.45575 16.7736 6.45575 19.3207 6.46479V6.46479ZM11.7141 7.68541C9.61775 7.69187 7.70608 9.50925 7.68541 11.687C7.67766 14.229 7.67766 16.771 7.68541 19.313C7.70479 21.3861 9.47825 23.2939 11.687 23.3146C14.229 23.3223 16.771 23.3223 19.313 23.3146C21.3913 23.2952 23.2939 21.5217 23.3146 19.313C23.3223 16.771 23.3223 14.229 23.3146 11.687C23.2952 9.59966 21.4869 7.70608 19.313 7.68541C16.78 7.67766 14.2471 7.68541 11.7141 7.68541V7.68541Z" fill="white"/>
<path d="M15.5309 10.9792C17.6209 10.9986 19.5687 12.6106 19.951 14.676C20.2236 16.1485 19.7095 17.745 18.6245 18.7809C17.4168 19.9305 15.5477 20.3412 13.9461 19.7548C12.1558 19.1 10.8964 17.2128 10.9804 15.3012C11.0824 13.0175 13.1 10.987 15.4999 10.9792C15.5103 10.9792 15.5206 10.9792 15.5309 10.9792V10.9792ZM15.4793 12.2025C13.9874 12.2167 12.5808 13.3482 12.2708 14.8181C11.9569 16.3048 12.812 17.9542 14.216 18.5471C15.7492 19.1955 17.7294 18.4683 18.4695 16.9545C19.2354 15.3903 18.5134 13.2655 16.8962 12.5099C16.4558 12.3045 15.9662 12.2012 15.4793 12.2025Z" fill="white"/>
<path fill-rule="evenodd" clip-rule="evenodd" d="M21.3125 10.6265C21.3125 10.3773 21.213 10.1383 21.0374 9.96262C20.8617 9.78696 20.6227 9.6875 20.3735 9.6875C20.3541 9.6875 20.3334 9.6875 20.314 9.6875C20.0648 9.6875 19.8258 9.78696 19.6501 9.96262C19.4745 10.1383 19.375 10.3773 19.375 10.6265C19.375 10.6369 19.375 10.6459 19.375 10.6562C19.375 10.9133 19.477 11.16 19.6592 11.3408C19.84 11.523 20.0867 11.625 20.3437 11.625C20.8785 11.625 21.3125 11.191 21.3125 10.6562C21.3125 10.6459 21.3125 10.6369 21.3125 10.6265Z" fill="white"/>
<defs>
<radialGradient id="paint0_radial_44_24" cx="0" cy="0" r="1" gradientUnits="userSpaceOnUse" gradientTransform="translate(2.58337 27.7707) scale(36.0801)">
<stop stop-color="#FF8100"/>
<stop offset="0.19" stop-color="#FF7209"/>
<stop offset="0.32" stop-color="#F55E16"/>
<stop offset="0.48" stop-color="#D92938"/>
<stop offset="1" stop-color="#9100FF"/>
</radialGradient>
</defs>
</svg>
