<svg width="17" height="21" viewBox="0 0 17 21" fill="none" xmlns="http://www.w3.org/2000/svg">
<g clip-path="url(#clip0_13_22)">
<path d="M7.03948 11.5241C5.41686 9.92061 5.05048 8.31708 4.96783 7.67463C4.94473 7.49698 5.00659 7.31884 5.13519 7.19264L6.44829 5.89556C6.64145 5.70479 6.67573 5.40749 6.53095 5.17867L4.44024 1.97045C4.28007 1.71707 3.95118 1.62562 3.68081 1.75929L0.324484 3.3214C0.105846 3.42779 -0.0227537 3.65736 0.00207025 3.89694C0.177932 5.54798 0.906294 9.60662 4.94233 13.5955C8.97836 17.5843 13.0847 18.3038 14.7563 18.4776C14.9988 18.5021 15.231 18.375 15.3387 18.159L16.9194 14.8421C17.0542 14.5755 16.9622 14.2514 16.7069 14.0928L13.4605 12.0273C13.2291 11.884 12.9283 11.9177 12.7351 12.1084L11.4226 13.406C11.2949 13.5331 11.1146 13.5942 10.9348 13.5714C10.2847 13.4897 8.6621 13.1277 7.03948 11.5241Z" fill="#065FAB"/>
<path d="M13.4828 10.6592C13.159 10.6592 12.8966 10.3998 12.8966 10.0799C12.8938 7.68141 10.927 5.73775 8.50003 5.73504C8.17627 5.73504 7.91382 5.47567 7.91382 5.15573C7.91382 4.83578 8.17627 4.57642 8.50003 4.57642C11.5743 4.57977 14.0656 7.04179 14.069 10.0799C14.069 10.3998 13.8065 10.6592 13.4828 10.6592Z" fill="#065FAB"/>
<path d="M16.4138 10.6592C16.0901 10.6592 15.8276 10.3999 15.8276 10.0799C15.8231 6.08248 12.5451 2.84302 8.50003 2.83855C8.17627 2.83855 7.91382 2.57919 7.91382 2.25924C7.91382 1.9393 8.17627 1.67993 8.50003 1.67993C13.1923 1.68504 16.9949 5.44286 17 10.0799C17 10.2336 16.9383 10.3809 16.8283 10.4896C16.7184 10.5982 16.5693 10.6592 16.4138 10.6592Z" fill="#065FAB"/>
</g>
<defs>
<clipPath id="clip0_13_22">
<rect width="17" height="21" fill="white"/>
</clipPath>
</defs>
</svg>
