<svg width="27" height="27" viewBox="0 0 27 27" fill="none" xmlns="http://www.w3.org/2000/svg">
<path d="M13.4999 1.03687C6.61656 1.03687 1.03674 6.61669 1.03674 13.5001C1.03674 20.3834 6.61656 25.9633 13.4999 25.9633C20.3833 25.9633 25.9631 20.3834 25.9631 13.5001C25.9631 6.61669 20.3833 1.03687 13.4999 1.03687ZM20.1981 18.2297C19.6662 18.5623 17.5049 18.6614 16.9816 18.2812C16.6946 18.0728 16.4321 17.812 16.1829 17.5636C16.0085 17.39 15.8106 17.3057 15.6608 17.1173C15.5384 16.9631 15.4545 16.7811 15.3257 16.6288C15.1083 16.3734 14.7738 16.1561 14.5092 16.4682C14.1107 16.9377 14.5718 17.8598 14.0405 18.2105C13.8623 18.3282 13.6825 18.3622 13.4597 18.3455L12.9664 18.3679C12.6767 18.3736 12.2177 18.3763 11.888 18.3169C11.5203 18.2504 11.2166 18.0496 10.8839 17.9021C10.2527 17.6222 9.65136 17.2406 9.19371 16.7123C7.9482 15.2732 6.27528 13.2941 5.62539 11.4848C5.49174 11.113 5.13858 10.3767 5.47338 10.0578C5.9286 9.72709 8.16285 9.63394 8.51142 10.1453C8.6529 10.3532 8.74227 10.6572 8.84244 10.8929C8.96718 11.1867 9.03468 11.4635 9.22962 11.7235C9.40215 11.954 9.52932 12.186 9.6627 12.4387C9.81255 12.7225 9.95403 12.9946 10.1363 13.2557C10.2599 13.4334 10.5869 13.7868 10.7935 13.813C11.2978 13.8775 11.2665 12.652 11.229 12.3528C11.1931 12.0645 11.1839 11.7586 11.1933 11.4662C11.2014 11.2167 11.2238 10.8651 11.0762 10.6616C10.8353 10.3295 10.2988 10.5779 10.257 10.1315C10.3455 10.0049 10.3269 9.8926 10.9185 9.69766C11.3845 9.54457 11.6855 9.54943 11.9928 9.574C12.6192 9.62422 13.2834 9.45466 13.8882 9.6577C14.466 9.85237 14.3766 10.6734 14.3572 11.1654C14.331 11.8369 14.3591 12.4924 14.3572 13.1742C14.3564 13.4844 14.344 13.7865 14.7225 13.7612C15.0773 13.7377 15.1135 13.439 15.2828 13.1928C15.5182 12.8494 15.7345 12.5011 15.9742 12.159C16.2974 11.6965 16.3952 11.1767 16.6994 10.7029C16.8083 10.5336 16.9019 10.1729 17.0696 10.0389C17.1965 9.93715 17.4376 9.99034 17.5913 9.99034H17.9566C18.236 9.99034 18.5211 9.98818 18.8084 9.99817C19.2221 10.0125 19.6854 9.91744 20.0955 9.97549C21.8654 10.2252 17.871 14.0087 18.0789 14.6843C18.2225 15.1508 19.1338 15.6722 19.4626 16.0543C19.8992 16.5632 21.2433 17.5749 20.1981 18.2297Z" fill="#4C75A3"/>
</svg>
